<mxfile host="app.diagrams.net" agent="Mozilla/5.0 (Windows NT 10.0; Win64; x64) AppleWebKit/537.36 (KHTML, like Gecko) Chrome/138.0.0.0 Safari/537.36" version="28.0.7">
  <diagram name="Page-1" id="zCuY4krLsXYyg7OU4vAU">
    <mxGraphModel dx="635" dy="266" grid="1" gridSize="10" guides="1" tooltips="1" connect="1" arrows="1" fold="1" page="1" pageScale="1" pageWidth="850" pageHeight="1100" math="0" shadow="0">
      <root>
        <mxCell id="0" />
        <mxCell id="1" parent="0" />
        <mxCell id="hWEYefz2tOlFxl5bTSBC-5" style="edgeStyle=orthogonalEdgeStyle;rounded=0;orthogonalLoop=1;jettySize=auto;html=1;entryX=1;entryY=0.5;entryDx=0;entryDy=0;" edge="1" parent="1" source="hWEYefz2tOlFxl5bTSBC-1" target="hWEYefz2tOlFxl5bTSBC-2">
          <mxGeometry relative="1" as="geometry" />
        </mxCell>
        <mxCell id="hWEYefz2tOlFxl5bTSBC-1" value="Third Block" style="whiteSpace=wrap;html=1;aspect=fixed;" vertex="1" parent="1">
          <mxGeometry x="360" y="280" width="80" height="80" as="geometry" />
        </mxCell>
        <mxCell id="hWEYefz2tOlFxl5bTSBC-4" style="edgeStyle=orthogonalEdgeStyle;rounded=0;orthogonalLoop=1;jettySize=auto;html=1;entryX=1;entryY=0.5;entryDx=0;entryDy=0;" edge="1" parent="1" source="hWEYefz2tOlFxl5bTSBC-2" target="hWEYefz2tOlFxl5bTSBC-3">
          <mxGeometry relative="1" as="geometry" />
        </mxCell>
        <mxCell id="hWEYefz2tOlFxl5bTSBC-2" value="Second Block" style="whiteSpace=wrap;html=1;aspect=fixed;" vertex="1" parent="1">
          <mxGeometry x="240" y="280" width="80" height="80" as="geometry" />
        </mxCell>
        <mxCell id="hWEYefz2tOlFxl5bTSBC-3" value="Genesis Block" style="whiteSpace=wrap;html=1;aspect=fixed;" vertex="1" parent="1">
          <mxGeometry x="120" y="280" width="80" height="80" as="geometry" />
        </mxCell>
        <mxCell id="hWEYefz2tOlFxl5bTSBC-6" value="&lt;font style=&quot;font-size: 8px;&quot;&gt;Hash: H0$#&lt;/font&gt;" style="text;html=1;align=center;verticalAlign=middle;whiteSpace=wrap;rounded=0;" vertex="1" parent="1">
          <mxGeometry x="120" y="280" width="60" height="30" as="geometry" />
        </mxCell>
        <mxCell id="hWEYefz2tOlFxl5bTSBC-7" value="&lt;font style=&quot;font-size: 8px;&quot;&gt;Previous Hash:&amp;nbsp;&lt;/font&gt;&lt;span style=&quot;font-size: 8px;&quot;&gt;H0$#&lt;/span&gt;" style="text;html=1;align=center;verticalAlign=middle;whiteSpace=wrap;rounded=0;" vertex="1" parent="1">
          <mxGeometry x="240" y="320" width="80" height="30" as="geometry" />
        </mxCell>
        <mxCell id="hWEYefz2tOlFxl5bTSBC-8" value="&lt;font style=&quot;font-size: 8px;&quot;&gt;Hash:&amp;nbsp;&lt;/font&gt;&lt;span style=&quot;font-size: 8px;&quot;&gt;H1$#&lt;/span&gt;" style="text;html=1;align=center;verticalAlign=middle;whiteSpace=wrap;rounded=0;" vertex="1" parent="1">
          <mxGeometry x="240" y="280" width="80" height="30" as="geometry" />
        </mxCell>
        <mxCell id="hWEYefz2tOlFxl5bTSBC-9" value="&lt;font style=&quot;font-size: 8px;&quot;&gt;Hash:&amp;nbsp;&lt;/font&gt;&lt;span style=&quot;font-size: 8px;&quot;&gt;H2$#&lt;/span&gt;" style="text;html=1;align=center;verticalAlign=middle;whiteSpace=wrap;rounded=0;" vertex="1" parent="1">
          <mxGeometry x="360" y="280" width="80" height="30" as="geometry" />
        </mxCell>
        <mxCell id="hWEYefz2tOlFxl5bTSBC-10" value="&lt;font style=&quot;font-size: 8px;&quot;&gt;Previous Hash:&amp;nbsp;&lt;/font&gt;&lt;span style=&quot;font-size: 8px;&quot;&gt;H1$#&lt;/span&gt;" style="text;html=1;align=center;verticalAlign=middle;whiteSpace=wrap;rounded=0;" vertex="1" parent="1">
          <mxGeometry x="360" y="320" width="80" height="30" as="geometry" />
        </mxCell>
        <mxCell id="hWEYefz2tOlFxl5bTSBC-11" value="Hash Value Linking" style="text;html=1;align=center;verticalAlign=middle;resizable=0;points=[];autosize=1;strokeColor=none;fillColor=none;" vertex="1" parent="1">
          <mxGeometry x="190" y="240" width="130" height="30" as="geometry" />
        </mxCell>
        <mxCell id="hWEYefz2tOlFxl5bTSBC-12" value="Figure 1.3: Hash Value Linking&amp;nbsp;" style="text;html=1;align=center;verticalAlign=middle;resizable=0;points=[];autosize=1;strokeColor=none;fillColor=none;" vertex="1" parent="1">
          <mxGeometry x="125" y="368" width="190" height="30" as="geometry" />
        </mxCell>
      </root>
    </mxGraphModel>
  </diagram>
</mxfile>
